<svg width="72" height="72" viewBox="0 0 72 72" fill="none" xmlns="http://www.w3.org/2000/svg">
<path d="M36 68C53.673 68 68 53.673 68 36C68 18.3269 53.673 4 36 4C18.3269 4 4 18.3269 4 36C4 53.673 18.3269 68 36 68Z" stroke="#8100E6" stroke-width="6.04419" stroke-linecap="round" stroke-linejoin="round"/>
<path d="M43.4666 58.4V52.4384C43.5466 51.448 43.4093 50.4522 43.0634 49.5175C42.7178 48.5827 42.1715 47.7303 41.4614 47.017C48.16 46.2899 55.2 43.8179 55.2 32.4765C55.1994 29.5762 54.0538 26.7873 52 24.6868C52.9725 22.1495 52.9037 19.3449 51.808 16.8557C51.808 16.8557 49.2906 16.1287 43.4666 19.93C38.577 18.6396 33.423 18.6396 28.5333 19.93C22.7093 16.1287 20.192 16.8557 20.192 16.8557C19.0962 19.3449 19.0275 22.1495 20 24.6868C17.9309 26.8028 16.784 29.617 16.8 32.5386C16.8 43.7971 23.84 46.2691 30.5386 47.0791C29.8368 47.7853 29.2955 48.6275 28.95 49.5511C28.6044 50.4743 28.4625 51.4579 28.5333 52.4384V58.4" stroke="#8100E6" stroke-width="6.04419" stroke-linecap="round" stroke-linejoin="round"/>
<path d="M28.5333 54.2457C22.1333 56.2672 16.8 54.2457 13.6 48.0141" stroke="#8100E6" stroke-width="6.04419" stroke-linecap="round" stroke-linejoin="round"/>
</svg>
