<svg width="60" height="60" viewBox="0 0 60 60" fill="none" xmlns="http://www.w3.org/2000/svg">
<path d="M53.3333 0H6.66667C2.98477 0 0 2.98477 0 6.66667V53.3333C0 57.0152 2.98477 60 6.66667 60H53.3333C57.0152 60 60 57.0152 60 53.3333V6.66667C60 2.98477 57.0152 0 53.3333 0ZM18.3333 48.3333C18.3333 49.2538 17.5871 50 16.6667 50H11.6667C10.7462 50 10 49.2538 10 48.3333V25C10 24.0795 10.7462 23.3333 11.6667 23.3333H16.6667C17.5871 23.3333 18.3333 24.0795 18.3333 25V48.3333ZM14.1667 20C11.4052 20 9.16667 17.7614 9.16667 15C9.16667 12.2386 11.4052 10 14.1667 10C16.9281 10 19.1667 12.2386 19.1667 15C19.1667 17.7614 16.9281 20 14.1667 20ZM50 48.3333C50 49.2538 49.2538 50 48.3333 50H43.3333C42.4129 50 41.6667 49.2538 41.6667 48.3333V35.8333C41.6667 33.0719 39.4281 30.8333 36.6667 30.8333C33.9052 30.8333 31.6667 33.0719 31.6667 35.8333V48.3333C31.6667 49.2538 30.9205 50 30 50H25C24.0795 50 23.3333 49.2538 23.3333 48.3333V25C23.3333 24.0795 24.0795 23.3333 25 23.3333H30C30.9205 23.3333 31.6667 24.0795 31.6667 25V27C33.6942 23.9147 37.2567 22.1975 40.9333 22.5333C46.192 23.1817 50.1082 27.7026 50 33V48.3333Z" fill="#8100E6"/>
</svg>
