<svg width="80" height="80" viewBox="0 0 80 80" fill="none" xmlns="http://www.w3.org/2000/svg">
<g clip-path="url(#clip0_7_69)">
<path d="M63.3333 10H16.6667C12.9848 10 10 12.9848 10 16.6667V63.3333C10 67.0152 12.9848 70 16.6667 70H63.3333C67.0152 70 70 67.0152 70 63.3333V16.6667C70 12.9848 67.0152 10 63.3333 10ZM28.3333 58.3333C28.3333 59.2538 27.5871 60 26.6667 60H21.6667C20.7462 60 20 59.2538 20 58.3333V35C20 34.0795 20.7462 33.3333 21.6667 33.3333H26.6667C27.5871 33.3333 28.3333 34.0795 28.3333 35V58.3333ZM24.1667 30C21.4052 30 19.1667 27.7614 19.1667 25C19.1667 22.2386 21.4052 20 24.1667 20C26.9281 20 29.1667 22.2386 29.1667 25C29.1667 27.7614 26.9281 30 24.1667 30ZM60 58.3333C60 59.2538 59.2538 60 58.3333 60H53.3333C52.4129 60 51.6667 59.2538 51.6667 58.3333V45.8333C51.6667 43.0719 49.4281 40.8333 46.6667 40.8333C43.9052 40.8333 41.6667 43.0719 41.6667 45.8333V58.3333C41.6667 59.2538 40.9205 60 40 60H35C34.0795 60 33.3333 59.2538 33.3333 58.3333V35C33.3333 34.0795 34.0795 33.3333 35 33.3333H40C40.9205 33.3333 41.6667 34.0795 41.6667 35V37C43.6942 33.9147 47.2567 32.1975 50.9333 32.5333C56.192 33.1817 60.1082 37.7026 60 43V58.3333Z" fill="#8100E6"/>
</g>
<defs>
<clipPath id="clip0_7_69">
<rect width="80" height="80" fill="white"/>
</clipPath>
</defs>
</svg>
