<svg width="28" height="28" viewBox="0 0 28 28" fill="none" xmlns="http://www.w3.org/2000/svg">
<path d="M19.25 25.375C19.25 25.607 19.1578 25.8296 18.9937 25.9937C18.8296 26.1578 18.6071 26.25 18.375 26.25H9.62501C9.39294 26.25 9.17038 26.1578 9.00629 25.9937C8.84219 25.8296 8.75001 25.607 8.75001 25.375C8.75001 25.1429 8.84219 24.9204 9.00629 24.7563C9.17038 24.5922 9.39294 24.5 9.62501 24.5H18.375C18.6071 24.5 18.8296 24.5922 18.9937 24.7563C19.1578 24.9204 19.25 25.1429 19.25 25.375ZM23.625 11.375C23.6288 12.8337 23.2993 14.2739 22.6616 15.5858C22.0239 16.8977 21.095 18.0466 19.9456 18.9448C19.7307 19.1096 19.5563 19.3212 19.4358 19.5637C19.3152 19.8062 19.2517 20.073 19.25 20.3437V21C19.25 21.4641 19.0656 21.9092 18.7374 22.2374C18.4093 22.5656 17.9641 22.75 17.5 22.75H10.5C10.0359 22.75 9.59076 22.5656 9.26257 22.2374C8.93438 21.9092 8.75001 21.4641 8.75001 21V20.3437C8.74983 20.0762 8.68831 19.8123 8.57018 19.5722C8.45206 19.3322 8.28047 19.1224 8.0686 18.959C6.92228 18.0663 5.99404 16.9245 5.35413 15.62C4.71422 14.3155 4.3794 12.8826 4.37501 11.4297C4.34657 6.21577 8.55969 1.87577 13.7681 1.74999C15.0515 1.71906 16.3281 1.94517 17.5227 2.41501C18.7174 2.88484 19.806 3.58891 20.7244 4.48577C21.6429 5.38263 22.3727 6.45417 22.8708 7.6373C23.3689 8.82044 23.6254 10.0913 23.625 11.375ZM21.875 11.375C21.8753 10.3246 21.6655 9.2848 21.2579 8.31674C20.8503 7.34868 20.2531 6.47194 19.5016 5.73814C18.7501 5.00434 17.8593 4.42829 16.8818 4.04392C15.9043 3.65954 14.8598 3.4746 13.8097 3.49999C9.54407 3.60061 6.10204 7.15202 6.12501 11.4176C6.12892 12.6061 6.40313 13.7781 6.92689 14.845C7.45065 15.9118 8.21022 16.8455 9.14813 17.5755C9.56971 17.9032 9.91071 18.323 10.145 18.8029C10.3793 19.2827 10.5008 19.8098 10.5 20.3437V21H13.125V16.112L9.88094 12.869C9.71676 12.7049 9.62452 12.4822 9.62452 12.25C9.62452 12.0178 9.71676 11.7951 9.88094 11.6309C10.0451 11.4667 10.2678 11.3745 10.5 11.3745C10.7322 11.3745 10.9549 11.4667 11.1191 11.6309L14 14.513L16.8809 11.6309C16.9622 11.5496 17.0588 11.4851 17.165 11.4411C17.2712 11.3971 17.385 11.3745 17.5 11.3745C17.615 11.3745 17.7288 11.3971 17.835 11.4411C17.9413 11.4851 18.0378 11.5496 18.1191 11.6309C18.2004 11.7122 18.2649 11.8087 18.3088 11.915C18.3528 12.0212 18.3755 12.135 18.3755 12.25C18.3755 12.365 18.3528 12.4788 18.3088 12.585C18.2649 12.6912 18.2004 12.7878 18.1191 12.869L14.875 16.112V21H17.5V20.3437C17.501 19.8082 17.6244 19.28 17.8608 18.7994C18.0971 18.3189 18.4403 17.8987 18.8639 17.5711C19.8046 16.8359 20.565 15.8955 21.0868 14.8216C21.6087 13.7478 21.8783 12.5689 21.875 11.375Z" fill="#8100E6"/>
</svg>
