<svg width="28" height="20" viewBox="0 0 28 20" fill="none" xmlns="http://www.w3.org/2000/svg">
<path d="M26.9231 0H1.07692C0.791305 0 0.517386 0.105357 0.315423 0.292893C0.113461 0.48043 0 0.734784 0 1V18C0 18.5304 0.226922 19.0391 0.630847 19.4142C1.03477 19.7893 1.58261 20 2.15385 20H25.8462C26.4174 20 26.9652 19.7893 27.3692 19.4142C27.7731 19.0391 28 18.5304 28 18V1C28 0.734784 27.8865 0.48043 27.6846 0.292893C27.4826 0.105357 27.2087 0 26.9231 0ZM24.154 2L14 10.6437L3.84596 2H24.154ZM25.8462 18H2.15385V3.27375L13.2717 12.7375C13.4704 12.9069 13.7303 13.0008 14 13.0008C14.2697 13.0008 14.5296 12.9069 14.7283 12.7375L25.8462 3.27375V18Z" fill="#8100E6"/>
</svg>
